Motion_pl12
version=1
nRows=13
nColumns=43
inDegrees=yes
endheader
time	pelvis_tilt	pelvis_list	pelvis_rotation	pelvis_tx	pelvis_ty	pelvis_tz	hip_flexion_r	hip_adduction_r	hip_rotation_r	knee_angle_r	ankle_angle_r	subtalar_angle_r	mtp_angle_r	hip_flexion_l	hip_adduction_l	hip_rotation_l	knee_angle_l	ankle_angle_l	subtalar_angle_l	mtp_angle_l	lumbar_extension	lumbar_bending	lumbar_rotation	neck_flexion	neck_lateral_bending	neck_rotation	arm_flex_r	arm_add_r	arm_rot_r	elbow_flex_r	pro_sup_r	wrist_flex_r	wrist_dev_r	hand_finger_flex_r	arm_flex_l	arm_add_l	arm_rot_l	elbow_flex_l	pro_sup_l	wrist_flex_l	wrist_dev_l	hand_finger_flex_l
      2.17000000	      2.94651769	    -10.47296903	     85.26831404	     -0.02743080	      0.92962035	      0.33498135	     30.20425459	      0.94797370	     -1.00897764	    -44.64609846	      2.14092716	      4.29015582	     28.48944145	     27.82012498	     -8.12045297	     -8.69154317	    -43.38703794	      4.15653684	     12.38630716	     35.16531198	    -32.48924096	      2.62910220	     -1.92774452	    -11.10915677	     -5.20899523	      5.07757237	    -23.98902043	    -21.63880495	     -8.32625431	     51.23775228	    128.22910204	     16.29281925	      4.93398640	    -12.53225890	    -25.36278418	    -18.18769747	    -23.23500717	     59.15342998	    119.50822213	      1.23383388	     -7.23732086	     15.67221625
      2.17250000	      2.95486202	    -10.58603911	     85.32395314	     -0.02731822	      0.93004568	      0.33488508	     30.18038073	      0.96128185	     -1.00571208	    -44.40382176	      2.13085702	      4.30671184	     28.45764973	     27.79752578	     -8.12303370	     -8.72606264	    -43.11444647	      4.13844585	     12.39781465	     35.15501487	    -32.34184488	      2.64390712	     -1.93513808	    -11.09540141	     -5.23345088	      5.09684933	    -23.97921415	    -21.62426518	     -8.31258661	     51.35553061	    128.21898781	     16.30441751	      4.90840524	    -12.52732514	    -25.30891034	    -18.39392755	    -23.33857205	     59.22899636	    119.52132580	      1.23657454	     -7.24390132	     15.65566458
      2.17500000	      2.95886721	    -10.71083531	     85.34624389	     -0.02740609	      0.93044525	      0.33472526	     30.13432196	      0.96715802	     -0.99118269	    -44.09169799	      2.10870786	      4.32216972	     28.41772879	     27.76062940	     -8.10570808	     -8.75475027	    -42.80582177	      4.10670656	     12.41653189	     35.14300790	    -32.17448517	      2.67069990	     -1.93923790	    -11.08805942	     -5.26182763	      5.12090561	    -23.97115391	    -21.66933867	     -8.33088166	     51.48878290	    128.20575636	     16.31129629	      4.88217561	    -12.52114804	    -25.30414668	    -18.56393785	    -23.42556746	     59.36475970	    119.53799835	      1.25158857	     -7.26181428	     15.64408951
      2.17750000	      2.96187814	    -10.81515280	     85.37529704	     -0.02742087	      0.93085236	      0.33459793	     30.08637728	      0.97668246	     -0.96982404	    -43.81648200	      2.08097956	      4.33712560	     28.37707178	     27.72057905	     -8.09444692	     -8.78336618	    -42.53084903	      4.07036238	     12.43391489	     35.13102375	    -32.03377846	      2.68785780	     -1.94195662	    -11.08702565	     -5.29874106	      5.14786509	    -23.95433809	    -21.70156688	     -8.34555032	     51.62629497	    128.19018564	     16.32119265	      4.85439464	    -12.51187078	    -25.28940375	    -18.74757086	    -23.53125990	     59.51749136	    119.55658656	      1.26156431	     -7.27665059	     15.63434575
      2.18000000	      2.96463628	    -10.91923103	     85.39854521	     -0.02746337	      0.93125232	      0.33447179	     30.03215157	      0.98555600	     -0.94458989	    -43.52606774	      2.04934226	      4.34923719	     28.33269673	     27.67185149	     -8.08153475	     -8.81712591	    -42.24123083	      4.02761800	     12.45345657	     35.11822862	    -31.89596920	      2.70653305	     -1.95076607	    -11.08134382	     -5.33515925	      5.17560360	    -23.93024015	    -21.74628528	     -8.36689630	     51.77281302	    128.17309916	     16.33285695	      4.82627534	    -12.49956341	    -25.28676125	    -18.92922099	    -23.64098295	     59.68892914	    119.58233030	      1.27324918	     -7.28634107	     15.62810750
      2.18250000	      2.96563128	    -11.01780608	     85.42428535	     -0.02749233	      0.93165384	      0.33438393	     29.97754095	      0.99312208	     -0.91800316	    -43.24167473	      2.01667776	      4.35809081	     28.28773427	     27.62104656	     -8.06837294	     -8.85435675	    -41.95319170	      3.98346243	     12.47360124	     35.10543497	    -31.77256049	      2.72328020	     -1.96192611	    -11.07196544	     -5.37232580	      5.20394043	    -23.89477527	    -21.78903056	     -8.38424896	     51.92136749	    128.15715171	     16.34780485	      4.79921783	    -12.48479354	    -25.27687043	    -19.11804370	    -23.75702497	     59.86650333	    119.61502560	      1.28242301	     -7.28759031	     15.62476674
      2.18500000	      2.96587745	    -11.11264824	     85.44766416	     -0.02754940	      0.93203900	      0.33427566	     29.91665466	      0.99839318	     -0.88934566	    -42.95157926	      1.97950129	      4.36327511	     28.23839624	     27.55768050	     -8.05124803	     -8.89271856	    -41.65480381	      3.93312535	     12.49695854	     35.09152723	    -31.64744892	      2.73846124	     -1.98055378	    -11.05295732	     -5.40775718	      5.23400161	    -23.84994700	    -21.84719670	     -8.40259613	     52.07211324	    128.14419266	     16.36634278	      4.77493752	    -12.46744810	    -25.27450279	    -19.30697310	    -23.87119947	     60.04634215	    119.66198952	      1.29410833	     -7.27646609	     15.62511938
      2.18750000	      2.96212023	    -11.19999705	     85.45839744	     -0.02767659	      0.93241181	      0.33405000	     29.83108600	      0.99426570	     -0.85012729	    -42.64218635	      1.92326929	      4.36101371	     28.16511689	     27.46058225	     -8.02133673	     -8.93565476	    -41.32135254	      3.85400973	     12.53290654	     35.07070101	    -31.52231802	      2.76087884	     -2.01685411	    -11.01183926	     -5.44412839	      5.27792961	    -23.80645409	    -21.93433263	     -8.41532211	     52.22410418	    128.13896605	     16.40057062	      4.75760040	    -12.44088437	    -25.30686632	    -19.49134759	    -23.98558619	     60.23562939	    119.75437261	      1.32048400	     -7.23375204	     15.63108322
      2.19000000	      2.95705576	    -11.27499912	     85.49289952	     -0.02767401	      0.93285224	      0.33402637	     29.76635844	      0.99556955	     -0.82246335	    -42.37382248	      1.88782975	      4.35825939	     28.10397610	     27.38616865	     -7.99919440	     -8.97081907	    -41.02965127	      3.80072117	     12.55750688	     35.05293660	    -31.43601544	      2.75598813	     -2.04028434	    -10.98570181	     -5.48146775	      5.31840465	    -23.72515192	    -21.99129955	     -8.40820322	     52.37606507	    128.13733384	     16.43308838	      4.73913122	    -12.41897042	    -25.26606567	    -19.70417218	    -24.11049108	     60.40703271	    119.84028522	      1.33284272	     -7.19026485	     15.63635451
      2.19250000	      2.94524254	    -11.35644447	     85.51184726	     -0.02772459	      0.93323102	      0.33392717	     29.68761090	      0.99269556	     -0.79124551	    -42.09021406	      1.85165309	      4.35449246	     28.03874271	     27.29649959	     -7.96821109	     -9.00142956	    -40.71253441	      3.74756806	     12.58238682	     35.03383893	    -31.34221506	      2.76641715	     -2.07512681	    -10.95128983	     -5.51137041	      5.35998721	    -23.64458102	    -22.07626538	     -8.40259870	     52.52592095	    128.13994281	     16.46906112	      4.72309296	    -12.39807321	    -25.24199908	    -19.91726165	    -24.22439031	     60.57274889	    119.94469803	      1.35159752	     -7.13434288	     15.64721754
      2.19500000	      2.93698698	    -11.41459241	     85.52154427	     -0.02783147	      0.93363301	      0.33377339	     29.59012897	      0.97643229	     -0.75280764	    -41.80187293	      1.80823948	      4.34733731	     27.95200195	     27.17735276	     -7.92266824	     -9.03159156	    -40.37555470	      3.67985444	     12.61180864	     35.00785512	    -31.26043162	      2.78024148	     -2.11944738	    -10.90498152	     -5.54105838	      5.41609635	    -23.55501560	    -22.17250035	     -8.37756416	     52.67853061	    128.14862234	     16.52290398	      4.70862050	    -12.37373329	    -25.22659283	    -20.12710548	    -24.33405751	     60.74141339	    120.09751848	      1.38421785	     -7.04752922	     15.66647541
      2.19750000	      2.92871832	    -11.47013163	     85.54317964	     -0.02785285	      0.93403639	      0.33369371	     29.49973661	      0.97152571	     -0.72545488	    -41.54366483	      1.78139195	      4.34635459	     27.87442777	     27.07248060	     -7.88965879	     -9.05730239	    -40.07114412	      3.63323094	     12.63062603	     34.98391927	    -31.19300117	      2.77552552	     -2.15176592	    -10.86974199	     -5.56676771	      5.46531831	    -23.45426227	    -22.25994659	     -8.35656354	     52.82832562	    128.15063892	     16.57060805	      4.68881457	    -12.35642753	    -25.17759102	    -20.35649044	    -24.45961148	     60.89250916	    120.23446226	      1.40740815	     -6.97006527	     15.68505789
      2.20000000	      2.92400263	    -11.52549354	     85.56178328	     -0.02789449	      0.93441709	      0.33361294	     29.41543149	      0.96807403	     -0.69894548	    -41.29968869	      1.76076883	      4.35163668	     27.80203244	     26.96961009	     -7.86098197	     -9.08228106	    -39.77979723	      3.59748993	     12.64527617	     34.96123864	    -31.12683714	      2.77669078	     -2.18024016	    -10.83831235	     -5.58625601	      5.50948022	    -23.34643351	    -22.35426742	     -8.34757560	     52.97610854	    128.14466435	     16.61335782	      4.66462566	    -12.34409312	    -25.11746446	    -20.58215828	    -24.58184184	     61.03841033	    120.35892298	      1.42904812	     -6.90162387	     15.70531525
